<mxfile host="app.diagrams.net" agent="Mozilla/5.0 (Windows NT 10.0; Win64; x64) AppleWebKit/537.36 (KHTML, like Gecko) Chrome/131.0.0.0 Safari/537.36 Edg/131.0.0.0" version="25.0.3">
  <diagram name="第 1 页" id="mWp_3e-Q2JUIQDOUSWmZ">
    <mxGraphModel dx="1213" dy="734" grid="1" gridSize="10" guides="1" tooltips="1" connect="1" arrows="1" fold="1" page="1" pageScale="1" pageWidth="827" pageHeight="1169" math="0" shadow="0">
      <root>
        <mxCell id="0" />
        <mxCell id="1" parent="0" />
        <mxCell id="4GJfoyeIHamDvMtHocM3-2" value="" style="rounded=0;whiteSpace=wrap;html=1;dashed=1;" vertex="1" parent="1">
          <mxGeometry x="100" y="461" width="710" height="190" as="geometry" />
        </mxCell>
        <mxCell id="4GJfoyeIHamDvMtHocM3-3" value="" style="rounded=0;whiteSpace=wrap;html=1;dashed=1;" vertex="1" parent="1">
          <mxGeometry x="100" y="278" width="710" height="190" as="geometry" />
        </mxCell>
        <mxCell id="4GJfoyeIHamDvMtHocM3-16" style="edgeStyle=orthogonalEdgeStyle;rounded=0;orthogonalLoop=1;jettySize=auto;html=1;entryX=0.159;entryY=0.624;entryDx=0;entryDy=0;entryPerimeter=0;exitX=0.5;exitY=1;exitDx=0;exitDy=0;" edge="1" parent="1" source="4GJfoyeIHamDvMtHocM3-18">
          <mxGeometry relative="1" as="geometry">
            <mxPoint x="170.0000000000001" y="523.8720000000001" as="targetPoint" />
            <mxPoint x="662" y="228" as="sourcePoint" />
            <Array as="points">
              <mxPoint x="665" y="510" />
              <mxPoint x="170" y="510" />
            </Array>
          </mxGeometry>
        </mxCell>
        <mxCell id="4GJfoyeIHamDvMtHocM3-17" value="&lt;font style=&quot;font-size: 12px;&quot;&gt;聊天信息用于个性化推荐&lt;/font&gt;" style="edgeLabel;html=1;align=center;verticalAlign=middle;resizable=0;points=[];" vertex="1" connectable="0" parent="4GJfoyeIHamDvMtHocM3-16">
          <mxGeometry x="0.2957" y="7" relative="1" as="geometry">
            <mxPoint x="128" y="-20" as="offset" />
          </mxGeometry>
        </mxCell>
        <mxCell id="4GJfoyeIHamDvMtHocM3-18" value="&lt;div&gt;&lt;div&gt;用户信息：根据用户信息，查询知识图谱，&lt;/div&gt;&lt;/div&gt;&lt;div&gt;构造符合用户画像的提示词&lt;/div&gt;" style="rounded=1;whiteSpace=wrap;html=1;fillColor=#60a917;fontColor=#ffffff;strokeColor=#2D7600;" vertex="1" parent="1">
          <mxGeometry x="520" y="340" width="270" height="60" as="geometry" />
        </mxCell>
        <mxCell id="4GJfoyeIHamDvMtHocM3-22" value="知识谱图" style="ellipse;whiteSpace=wrap;html=1;aspect=fixed;fillColor=#f5f5f5;fontColor=#333333;strokeColor=#666666;" vertex="1" parent="1">
          <mxGeometry x="122" y="527" width="80" height="80" as="geometry" />
        </mxCell>
        <mxCell id="4GJfoyeIHamDvMtHocM3-23" value="获取对应实体" style="text;html=1;align=center;verticalAlign=middle;resizable=0;points=[];autosize=1;strokeColor=none;fillColor=none;" vertex="1" parent="1">
          <mxGeometry x="112" y="607" width="100" height="30" as="geometry" />
        </mxCell>
        <mxCell id="4GJfoyeIHamDvMtHocM3-24" value="" style="endArrow=classic;html=1;rounded=0;exitX=1.008;exitY=0.624;exitDx=0;exitDy=0;exitPerimeter=0;" edge="1" parent="1" source="4GJfoyeIHamDvMtHocM3-22">
          <mxGeometry width="50" height="50" relative="1" as="geometry">
            <mxPoint x="362" y="617" as="sourcePoint" />
            <mxPoint x="282" y="577" as="targetPoint" />
          </mxGeometry>
        </mxCell>
        <mxCell id="4GJfoyeIHamDvMtHocM3-25" value="DataBase" style="shape=cylinder3;whiteSpace=wrap;html=1;boundedLbl=1;backgroundOutline=1;size=15;fillColor=#d5e8d4;strokeColor=#82b366;" vertex="1" parent="1">
          <mxGeometry x="292" y="527" width="60" height="80" as="geometry" />
        </mxCell>
        <mxCell id="4GJfoyeIHamDvMtHocM3-26" value="数据库获取电影列表" style="text;html=1;align=center;verticalAlign=middle;resizable=0;points=[];autosize=1;strokeColor=none;fillColor=none;" vertex="1" parent="1">
          <mxGeometry x="257" y="607" width="130" height="30" as="geometry" />
        </mxCell>
        <mxCell id="4GJfoyeIHamDvMtHocM3-27" value="" style="endArrow=classic;html=1;rounded=0;" edge="1" parent="1">
          <mxGeometry width="50" height="50" relative="1" as="geometry">
            <mxPoint x="362" y="577" as="sourcePoint" />
            <mxPoint x="442" y="577" as="targetPoint" />
          </mxGeometry>
        </mxCell>
        <mxCell id="4GJfoyeIHamDvMtHocM3-28" value="LLM&lt;div&gt;筛选Top N视频&lt;/div&gt;" style="rounded=0;whiteSpace=wrap;html=1;fillColor=#dae8fc;strokeColor=#6c8ebf;" vertex="1" parent="1">
          <mxGeometry x="452" y="517" width="50" height="100" as="geometry" />
        </mxCell>
        <mxCell id="4GJfoyeIHamDvMtHocM3-29" value="" style="endArrow=classic;html=1;rounded=0;" edge="1" parent="1">
          <mxGeometry width="50" height="50" relative="1" as="geometry">
            <mxPoint x="512" y="577" as="sourcePoint" />
            <mxPoint x="562" y="577" as="targetPoint" />
          </mxGeometry>
        </mxCell>
        <mxCell id="4GJfoyeIHamDvMtHocM3-30" value="返回推荐结果" style="shape=document;whiteSpace=wrap;html=1;boundedLbl=1;fillColor=#e1d5e7;strokeColor=#9673a6;" vertex="1" parent="1">
          <mxGeometry x="572" y="547" width="100" height="60" as="geometry" />
        </mxCell>
        <mxCell id="4GJfoyeIHamDvMtHocM3-35" value="DataBase" style="shape=cylinder3;whiteSpace=wrap;html=1;boundedLbl=1;backgroundOutline=1;size=15;fillColor=#d5e8d4;strokeColor=#82b366;" vertex="1" parent="1">
          <mxGeometry x="132" y="330" width="60" height="80" as="geometry" />
        </mxCell>
        <mxCell id="4GJfoyeIHamDvMtHocM3-37" value="&lt;b&gt;视频推荐&lt;/b&gt;" style="text;html=1;align=center;verticalAlign=middle;whiteSpace=wrap;rounded=0;" vertex="1" parent="1">
          <mxGeometry x="113" y="290" width="79" height="30" as="geometry" />
        </mxCell>
        <mxCell id="4GJfoyeIHamDvMtHocM3-39" value="" style="endArrow=classic;html=1;rounded=0;entryX=0.338;entryY=0.484;entryDx=0;entryDy=0;entryPerimeter=0;" edge="1" parent="1" source="4GJfoyeIHamDvMtHocM3-35" target="4GJfoyeIHamDvMtHocM3-3">
          <mxGeometry width="50" height="50" relative="1" as="geometry">
            <mxPoint x="192" y="420" as="sourcePoint" />
            <mxPoint x="262.71067811865476" y="370" as="targetPoint" />
          </mxGeometry>
        </mxCell>
        <mxCell id="4GJfoyeIHamDvMtHocM3-40" value="数据库查询用户的特征、&lt;div&gt;喜欢、点赞等&lt;/div&gt;" style="text;html=1;align=left;verticalAlign=middle;whiteSpace=wrap;rounded=0;" vertex="1" parent="1">
          <mxGeometry x="202" y="340" width="218" height="30" as="geometry" />
        </mxCell>
        <mxCell id="4GJfoyeIHamDvMtHocM3-42" value="LLM&lt;div&gt;提取信息实体&lt;/div&gt;" style="rounded=0;whiteSpace=wrap;html=1;fillColor=#dae8fc;strokeColor=#6c8ebf;" vertex="1" parent="1">
          <mxGeometry x="340" y="323" width="50" height="100" as="geometry" />
        </mxCell>
        <mxCell id="4GJfoyeIHamDvMtHocM3-43" value="" style="endArrow=classic;html=1;rounded=0;" edge="1" parent="1">
          <mxGeometry width="50" height="50" relative="1" as="geometry">
            <mxPoint x="395" y="360" as="sourcePoint" />
            <mxPoint x="515" y="360" as="targetPoint" />
            <Array as="points">
              <mxPoint x="515" y="360" />
            </Array>
          </mxGeometry>
        </mxCell>
        <mxCell id="4GJfoyeIHamDvMtHocM3-44" value="爱好、性格、性别" style="text;html=1;align=center;verticalAlign=middle;resizable=0;points=[];autosize=1;strokeColor=none;fillColor=none;" vertex="1" parent="1">
          <mxGeometry x="387" y="370" width="120" height="30" as="geometry" />
        </mxCell>
      </root>
    </mxGraphModel>
  </diagram>
</mxfile>
